<?xml version="1.0" encoding="utf-8"?>
<!-- Generator: Adobe Illustrator 19.0.0, SVG Export Plug-In . SVG Version: 6.00 Build 0)  -->
<svg version="1.1" id="Layer_1" xmlns="http://www.w3.org/2000/svg" xmlns:xlink="http://www.w3.org/1999/xlink" x="0px" y="0px"
	 viewBox="-415 217 128 128" style="enable-background:new -415 217 128 128;" xml:space="preserve">
<style type="text/css">
	.st0{fill:url(#SVGID_1_);}
	.st1{opacity:0.2;}
	.st2{fill:#434343;}
	.st3{fill:#FF001F;}
	.st4{fill:url(#SVGID_2_);}
	.st5{display:none;}
	.st6{display:inline;}
	.st7{opacity:0.6;}
	.st8{opacity:0.61;fill:none;stroke:#010101;stroke-width:0.2625;stroke-miterlimit:10;enable-background:new    ;}
	.st9{opacity:0.61;fill:none;stroke:#010101;stroke-width:0.25;stroke-miterlimit:10;enable-background:new    ;}
	.st10{opacity:0.61;}
	.st11{fill:#010101;}
	.st12{opacity:0.61;fill:none;stroke:#010101;stroke-width:0.2578;stroke-miterlimit:10;enable-background:new    ;}
	.st13{opacity:0.61;fill:none;stroke:#010101;stroke-width:0.2628;stroke-miterlimit:10;enable-background:new    ;}
	.st14{opacity:0.61;fill:none;stroke:#010101;stroke-width:0.2627;stroke-miterlimit:10;enable-background:new    ;}
	.st15{opacity:0.2;enable-background:new    ;}
	.st16{clip-path:url(#SVGID_4_);}
	.st17{fill:none;stroke:#010101;stroke-width:0.25;stroke-miterlimit:10;}
	.st18{opacity:0.3;fill:#EF4438;enable-background:new    ;}
	.st19{clip-path:url(#SVGID_6_);}
	.st20{clip-path:url(#SVGID_8_);}
</style>
<g id="Layer_1_1_">
	<g>
		
			<linearGradient id="SVGID_1_" gradientUnits="userSpaceOnUse" x1="-384.9397" y1="316.9496" x2="-304.8398" y2="236.8497" gradientTransform="matrix(1 0 0 -1 0 564)">
			<stop  offset="0" style="stop-color:#FAA629"/>
			<stop  offset="1" style="stop-color:#FECC81"/>
		</linearGradient>
		<path class="st0" d="M-293.2,328.2l-53.8-53.8c-1.4-1.4-3.3-2.2-5.3-2.2c-2,0-3.9,0.8-5.3,2.2c-1.4,1.4-2.2,3.3-2.2,5.3
			s0.8,3.9,2.2,5.3l53.8,53.8c1.4,1.4,3.3,2.2,5.3,2.2s3.9-0.8,5.3-2.2c1.4-1.4,2.2-3.3,2.2-5.3S-291.8,329.6-293.2,328.2z"/>
		<g class="st1">
			<path class="st2" d="M-352.3,275.2c1.2,0,2.3,0.5,3.2,1.3l53.8,53.8c0.9,0.8,1.3,2,1.3,3.2s-0.5,2.3-1.3,3.2
				c-0.8,0.9-2,1.3-3.2,1.3s-2.3-0.5-3.2-1.3l-53.8-53.8c-0.9-0.9-1.3-2-1.3-3.2c0-1.2,0.5-2.3,1.3-3.2
				C-354.7,275.6-353.5,275.2-352.3,275.2 M-352.3,272.2c-2,0-3.9,0.8-5.3,2.2c-1.4,1.4-2.2,3.3-2.2,5.3s0.8,3.9,2.2,5.3l53.8,53.8
				c1.4,1.4,3.3,2.2,5.3,2.2s3.9-0.8,5.3-2.2c1.4-1.4,2.2-3.3,2.2-5.3s-0.8-3.9-2.2-5.3l-53.8-53.8
				C-348.5,273-350.3,272.2-352.3,272.2L-352.3,272.2z"/>
		</g>
	</g>
	<g>
		<circle class="st3" cx="-366" cy="266" r="45"/>
		<g class="st1">
			<path class="st2" d="M-366,224c23.2,0,42,18.8,42,42s-18.8,42-42,42s-42-18.8-42-42S-389.2,224-366,224 M-366,221
				c-24.9,0-45,20.1-45,45s20.1,45,45,45s45-20.1,45-45S-341.1,221-366,221L-366,221z"/>
		</g>
		
			<linearGradient id="SVGID_2_" gradientUnits="userSpaceOnUse" x1="-394.4239" y1="326.0182" x2="-332.9987" y2="264.5931" gradientTransform="matrix(1 0 0 -1 0 564)">
			<stop  offset="0.6882" style="stop-color:#FCE4EB"/>
			<stop  offset="1" style="stop-color:#F48FB1"/>
		</linearGradient>
		<path class="st4" d="M-336.5,240.9c-9.3-10.6-33.8-21-54.7-4.9c-7.7,5.9-14.1,19.3-14.1,31.9c0,6.6,1.5,12.9,4.2,18.5
			c-1.8-4.6-2.9-9.7-2.9-14.9c0-18.8,15.1-37.8,35.2-38.1c23.6-0.4,34,15.6,34,30.7c0,11.1-4.8,19.3-12,23.8
			c-4.4,2.8-9.8,4.3-15.5,4.3c-12.7,0-22.4-8.9-22.4-21.8c0-11.9,9.6-18.8,18.9-19.2c11.9-0.5,16.1,9.1,16,15.3
			c-0.1,7.8-7,12.2-13.3,11.8c-5.4-0.4-8.7-3.9-8.5-9.6c0.1-3.9,3.8-6.8,7.1-6.8c3.8,0,6.3,2.6,6.6,5.1c0.3,2.3-0.4,5.9-5.4,5.9
			c-2,0-3.6-1.7-3.8-3c-0.2-1.3,0-3.6,2.1-3.6c0,0-2,1.1-1,3.1c0.5,1,1.3,1.3,2.2,1.3c1.5-0.1,2.7-1.3,2.7-2.8
			c0-1.9-1.7-3.5-3.8-3.5c-2.6,0-4.7,2-4.7,4.4c0,3,2.4,6.6,6.5,6.8c4.9,0.2,9.8-4.4,8.9-9.8c-0.8-4.6-3.2-9.3-11.3-9.3
			c-6.3,0-13.6,4-13.6,13c0,9.9,8.1,16.3,16,16.3c12.1,0,21.8-6.4,21.8-20.2c0-3.3-0.5-6.7-1.7-9.8c-2.1-5.5-8.6-14.7-24.8-14.9
			c-15.5-0.2-28.1,12.6-28.1,28.1c0,18.3,14.4,32,34.2,32C-337.3,301.1-312.5,268.4-336.5,240.9z"/>
	</g>
</g>
<g id="Layer_2" class="st5">
	<g class="st6">
		<g class="st7">
			<circle class="st8" cx="-488.5" cy="281" r="28"/>
			<line class="st9" x1="-468.5" y1="217" x2="-468.5" y2="345"/>
			<line class="st9" x1="-508.5" y1="217" x2="-508.5" y2="345"/>
			<line class="st9" x1="-488.5" y1="217" x2="-488.5" y2="345"/>
			<line class="st9" x1="-424.5" y1="281" x2="-552.5" y2="281"/>
			<line class="st9" x1="-424.5" y1="261" x2="-552.5" y2="261"/>
			<line class="st9" x1="-424.5" y1="300.8" x2="-552.5" y2="300.8"/>
			<line class="st9" x1="-424.5" y1="345" x2="-552.5" y2="217"/>
			<line class="st9" x1="-552.5" y1="345" x2="-424.5" y2="217"/>
			<g class="st10">
				<path class="st11" d="M-488.5,221.3c32.9,0,59.7,26.8,59.7,59.7s-26.8,59.7-59.7,59.7s-59.7-26.8-59.7-59.7
					S-521.4,221.3-488.5,221.3 M-488.5,221c-33.1,0-60,26.9-60,60s26.9,60,60,60s60-26.9,60-60S-455.4,221-488.5,221L-488.5,221z"/>
			</g>
			<path class="st12" d="M-444.5,333h-87.9c-4.4,0-8-3.6-8-8V237c0-4.4,3.6-8,8-8h87.9c4.4,0,8,3.6,8,8v87.9
				C-436.5,329.4-440.1,333-444.5,333z"/>
			<path class="st13" d="M-452.5,341h-72c-4.4,0-8-3.6-8-8V229c0-4.4,3.6-8,8-8h72c4.4,0,8,3.6,8,8v104
				C-444.5,337.4-448.1,341-452.5,341z"/>
			<path class="st14" d="M-438.7,325h-99.5c-5.6,0-10.2-4.6-10.2-10.2v-67.5c0-5.6,4.6-10.2,10.2-10.2h99.5
				c5.6,0,10.2,4.6,10.2,10.2v67.5C-428.5,320.4-433.1,325-438.7,325z"/>
		</g>
		<g>
			<g class="st15">
				<g>
					<defs>
						<rect id="SVGID_3_" x="-552.5" y="217" width="128" height="128"/>
					</defs>
					<clipPath id="SVGID_4_">
						<use xlink:href="#SVGID_3_"  style="overflow:visible;"/>
					</clipPath>
					<g class="st16">
						<g>
							<line class="st17" x1="-580.5" y1="377" x2="-580.5" y2="185"/>
							<line class="st17" x1="-576.5" y1="377" x2="-576.5" y2="185"/>
							<line class="st17" x1="-572.5" y1="377" x2="-572.5" y2="185"/>
							<line class="st17" x1="-568.5" y1="377" x2="-568.5" y2="185"/>
							<line class="st17" x1="-564.5" y1="377" x2="-564.5" y2="185"/>
							<line class="st17" x1="-560.5" y1="377" x2="-560.5" y2="185"/>
							<line class="st17" x1="-556.5" y1="377" x2="-556.5" y2="185"/>
							<line class="st17" x1="-552.5" y1="377" x2="-552.5" y2="185"/>
							<line class="st17" x1="-548.5" y1="377" x2="-548.5" y2="185"/>
							<line class="st17" x1="-544.5" y1="377" x2="-544.5" y2="185"/>
							<line class="st17" x1="-540.5" y1="377" x2="-540.5" y2="185"/>
							<line class="st17" x1="-536.5" y1="377" x2="-536.5" y2="185"/>
							<line class="st17" x1="-532.5" y1="377" x2="-532.5" y2="185"/>
							<line class="st17" x1="-528.5" y1="377" x2="-528.5" y2="185"/>
							<line class="st17" x1="-524.5" y1="377" x2="-524.5" y2="185"/>
							<line class="st17" x1="-520.5" y1="377" x2="-520.5" y2="185"/>
							<line class="st17" x1="-516.5" y1="377" x2="-516.5" y2="185"/>
							<line class="st17" x1="-512.5" y1="377" x2="-512.5" y2="185"/>
							<line class="st17" x1="-508.5" y1="377" x2="-508.5" y2="185"/>
							<line class="st17" x1="-504.5" y1="377" x2="-504.5" y2="185"/>
							<line class="st17" x1="-500.5" y1="377" x2="-500.5" y2="185"/>
							<line class="st17" x1="-496.5" y1="377" x2="-496.5" y2="185"/>
							<line class="st17" x1="-492.5" y1="377" x2="-492.5" y2="185"/>
							<line class="st17" x1="-488.5" y1="377" x2="-488.5" y2="185"/>
							<line class="st17" x1="-484.5" y1="377" x2="-484.5" y2="185"/>
							<line class="st17" x1="-480.5" y1="377" x2="-480.5" y2="185"/>
							<line class="st17" x1="-476.5" y1="377" x2="-476.5" y2="185"/>
							<line class="st17" x1="-472.5" y1="377" x2="-472.5" y2="185"/>
							<line class="st17" x1="-468.5" y1="377" x2="-468.5" y2="185"/>
							<line class="st17" x1="-464.5" y1="377" x2="-464.5" y2="185"/>
							<line class="st17" x1="-460.5" y1="377" x2="-460.5" y2="185"/>
							<line class="st17" x1="-456.5" y1="377" x2="-456.5" y2="185"/>
							<line class="st17" x1="-452.5" y1="377" x2="-452.5" y2="185"/>
							<line class="st17" x1="-448.5" y1="377" x2="-448.5" y2="185"/>
							<line class="st17" x1="-444.5" y1="377" x2="-444.5" y2="185"/>
							<line class="st17" x1="-440.5" y1="377" x2="-440.5" y2="185"/>
							<line class="st17" x1="-436.5" y1="377" x2="-436.5" y2="185"/>
							<line class="st17" x1="-432.5" y1="377" x2="-432.5" y2="185"/>
							<line class="st17" x1="-428.5" y1="377" x2="-428.5" y2="185"/>
							<line class="st17" x1="-424.5" y1="377" x2="-424.5" y2="185"/>
							<line class="st17" x1="-420.5" y1="377" x2="-420.5" y2="185"/>
							<line class="st17" x1="-416.5" y1="377" x2="-416.5" y2="185"/>
							<line class="st17" x1="-415.5" y1="383" x2="-415.5" y2="191.1"/>
							<line class="st17" x1="-408.5" y1="377" x2="-408.5" y2="185"/>
							<line class="st17" x1="-404.5" y1="377" x2="-404.5" y2="185"/>
							<line class="st17" x1="-400.5" y1="377" x2="-400.5" y2="185"/>
							<line class="st17" x1="-396.5" y1="377" x2="-396.5" y2="185"/>
						</g>
						<g>
							<line class="st17" x1="-584.5" y1="189" x2="-392.5" y2="189"/>
							<line class="st17" x1="-584.5" y1="193" x2="-392.5" y2="193"/>
							<line class="st17" x1="-584.5" y1="197" x2="-392.5" y2="197"/>
							<line class="st17" x1="-584.5" y1="201" x2="-392.5" y2="201"/>
							<line class="st17" x1="-584.5" y1="205" x2="-392.5" y2="205"/>
							<line class="st17" x1="-584.5" y1="209" x2="-392.5" y2="209"/>
							<line class="st17" x1="-584.5" y1="213" x2="-392.5" y2="213"/>
							<line class="st17" x1="-584.5" y1="217" x2="-392.5" y2="217"/>
							<line class="st17" x1="-584.5" y1="221" x2="-392.5" y2="221"/>
							<line class="st17" x1="-584.5" y1="225" x2="-392.5" y2="225"/>
							<line class="st17" x1="-584.5" y1="229" x2="-392.5" y2="229"/>
							<line class="st17" x1="-584.5" y1="233" x2="-392.5" y2="233"/>
							<line class="st17" x1="-584.5" y1="237" x2="-392.5" y2="237"/>
							<line class="st17" x1="-584.5" y1="241" x2="-392.5" y2="241"/>
							<line class="st17" x1="-584.5" y1="245" x2="-392.5" y2="245"/>
							<line class="st17" x1="-584.5" y1="249" x2="-392.5" y2="249"/>
							<line class="st17" x1="-584.5" y1="253" x2="-392.5" y2="253"/>
							<line class="st17" x1="-584.5" y1="257" x2="-392.5" y2="257"/>
							<line class="st17" x1="-584.5" y1="261" x2="-392.5" y2="261"/>
							<line class="st17" x1="-584.5" y1="265" x2="-392.5" y2="265"/>
							<line class="st17" x1="-584.5" y1="269" x2="-392.5" y2="269"/>
							<line class="st17" x1="-584.5" y1="273" x2="-392.5" y2="273"/>
							<line class="st17" x1="-584.5" y1="277" x2="-392.5" y2="277"/>
							<line class="st17" x1="-584.5" y1="281" x2="-392.5" y2="281"/>
							<line class="st17" x1="-584.5" y1="285" x2="-392.5" y2="285"/>
							<line class="st17" x1="-584.5" y1="289" x2="-392.5" y2="289"/>
							<line class="st17" x1="-584.5" y1="293" x2="-392.5" y2="293"/>
							<line class="st17" x1="-584.5" y1="297" x2="-392.5" y2="297"/>
							<line class="st17" x1="-584.5" y1="301" x2="-392.5" y2="301"/>
							<line class="st17" x1="-584.5" y1="305" x2="-392.5" y2="305"/>
							<line class="st17" x1="-584.5" y1="309" x2="-392.5" y2="309"/>
							<line class="st17" x1="-584.5" y1="313" x2="-392.5" y2="313"/>
							<line class="st17" x1="-584.5" y1="317" x2="-392.5" y2="317"/>
							<line class="st17" x1="-584.5" y1="321" x2="-392.5" y2="321"/>
							<line class="st17" x1="-584.5" y1="325" x2="-392.5" y2="325"/>
							<line class="st17" x1="-584.5" y1="329" x2="-392.5" y2="329"/>
							<line class="st17" x1="-584.5" y1="333" x2="-392.5" y2="333"/>
							<line class="st17" x1="-584.5" y1="337" x2="-392.5" y2="337"/>
							<line class="st17" x1="-584.5" y1="341" x2="-392.5" y2="341"/>
							<line class="st17" x1="-584.5" y1="345" x2="-392.5" y2="345"/>
							<line class="st17" x1="-584.5" y1="349" x2="-392.5" y2="349"/>
							<line class="st17" x1="-584.5" y1="353" x2="-392.5" y2="353"/>
							<line class="st17" x1="-584.5" y1="357" x2="-392.5" y2="357"/>
							<line class="st17" x1="-584.5" y1="361" x2="-392.5" y2="361"/>
							<line class="st17" x1="-584.5" y1="365" x2="-392.5" y2="365"/>
							<line class="st17" x1="-584.5" y1="369" x2="-392.5" y2="369"/>
							<line class="st17" x1="-584.5" y1="373" x2="-392.5" y2="373"/>
						</g>
						<path class="st11" d="M-392.8,185.3v191.5h-191.5V185.3H-392.8 M-392.5,185h-192v192h192V185L-392.5,185z"/>
					</g>
				</g>
			</g>
			<g>
				<rect x="-552.5" y="217" class="st18" width="4" height="128"/>
				<rect x="-428.5" y="217" class="st18" width="4" height="128"/>
				<rect x="-548.5" y="217" class="st18" width="120" height="4"/>
				<rect x="-548.5" y="341" class="st18" width="120" height="4"/>
			</g>
		</g>
	</g>
	<g class="st6">
		<g class="st7">
			<circle class="st8" cx="-351" cy="281" r="28"/>
			<line class="st9" x1="-331" y1="217" x2="-331" y2="345"/>
			<line class="st9" x1="-371" y1="217" x2="-371" y2="345"/>
			<line class="st9" x1="-351" y1="217" x2="-351" y2="345"/>
			<line class="st9" x1="-287" y1="281" x2="-415" y2="281"/>
			<line class="st9" x1="-287" y1="261" x2="-415" y2="261"/>
			<line class="st9" x1="-287" y1="300.8" x2="-415" y2="300.8"/>
			<line class="st9" x1="-287" y1="345" x2="-415" y2="217"/>
			<line class="st9" x1="-415" y1="345" x2="-287" y2="217"/>
			<g class="st10">
				<path class="st11" d="M-351,221.3c32.9,0,59.7,26.8,59.7,59.7s-26.8,59.7-59.7,59.7s-59.7-26.8-59.7-59.7
					S-383.9,221.3-351,221.3 M-351,221c-33.1,0-60,26.9-60,60s26.9,60,60,60s60-26.9,60-60S-317.9,221-351,221L-351,221z"/>
			</g>
			<path class="st12" d="M-307,333H-395c-4.4,0-8-3.6-8-8V237c0-4.4,3.6-8,8-8h87.9c4.4,0,8,3.6,8,8v87.9
				C-299,329.4-302.6,333-307,333z"/>
			<path class="st13" d="M-315,341h-72c-4.4,0-8-3.6-8-8V229c0-4.4,3.6-8,8-8h72c4.4,0,8,3.6,8,8v104C-307,337.4-310.6,341-315,341z
				"/>
			<path class="st14" d="M-301.2,325h-99.5c-5.6,0-10.2-4.6-10.2-10.2v-67.5c0-5.6,4.6-10.2,10.2-10.2h99.5
				c5.6,0,10.2,4.6,10.2,10.2v67.5C-291,320.4-295.6,325-301.2,325z"/>
		</g>
		<g>
			<g class="st15">
				<g>
					<defs>
						<rect id="SVGID_5_" x="-415" y="217" width="128" height="128"/>
					</defs>
					<clipPath id="SVGID_6_">
						<use xlink:href="#SVGID_5_"  style="overflow:visible;"/>
					</clipPath>
					<g class="st19">
						<g>
							<line class="st17" x1="-443" y1="377" x2="-443" y2="185"/>
							<line class="st17" x1="-439" y1="377" x2="-439" y2="185"/>
							<line class="st17" x1="-435" y1="377" x2="-435" y2="185"/>
							<line class="st17" x1="-431" y1="377" x2="-431" y2="185"/>
							<line class="st17" x1="-427" y1="377" x2="-427" y2="185"/>
							<line class="st17" x1="-423" y1="377" x2="-423" y2="185"/>
							<line class="st17" x1="-419" y1="377" x2="-419" y2="185"/>
							<line class="st17" x1="-415" y1="377" x2="-415" y2="185"/>
							<line class="st17" x1="-411" y1="377" x2="-411" y2="185"/>
							<line class="st17" x1="-407" y1="377" x2="-407" y2="185"/>
							<line class="st17" x1="-403" y1="377" x2="-403" y2="185"/>
							<line class="st17" x1="-399" y1="377" x2="-399" y2="185"/>
							<line class="st17" x1="-395" y1="377" x2="-395" y2="185"/>
							<line class="st17" x1="-391" y1="377" x2="-391" y2="185"/>
							<line class="st17" x1="-387" y1="377" x2="-387" y2="185"/>
							<line class="st17" x1="-383" y1="377" x2="-383" y2="185"/>
							<line class="st17" x1="-379" y1="377" x2="-379" y2="185"/>
							<line class="st17" x1="-375" y1="377" x2="-375" y2="185"/>
							<line class="st17" x1="-371" y1="377" x2="-371" y2="185"/>
							<line class="st17" x1="-367" y1="377" x2="-367" y2="185"/>
							<line class="st17" x1="-363" y1="377" x2="-363" y2="185"/>
							<line class="st17" x1="-359" y1="377" x2="-359" y2="185"/>
							<line class="st17" x1="-355" y1="377" x2="-355" y2="185"/>
							<line class="st17" x1="-351" y1="377" x2="-351" y2="185"/>
							<line class="st17" x1="-347" y1="377" x2="-347" y2="185"/>
							<line class="st17" x1="-343" y1="377" x2="-343" y2="185"/>
							<line class="st17" x1="-339" y1="377" x2="-339" y2="185"/>
							<line class="st17" x1="-335" y1="377" x2="-335" y2="185"/>
							<line class="st17" x1="-331" y1="377" x2="-331" y2="185"/>
							<line class="st17" x1="-327" y1="377" x2="-327" y2="185"/>
							<line class="st17" x1="-323" y1="377" x2="-323" y2="185"/>
							<line class="st17" x1="-319" y1="377" x2="-319" y2="185"/>
							<line class="st17" x1="-315" y1="377" x2="-315" y2="185"/>
							<line class="st17" x1="-311" y1="377" x2="-311" y2="185"/>
							<line class="st17" x1="-307" y1="377" x2="-307" y2="185"/>
							<line class="st17" x1="-303" y1="377" x2="-303" y2="185"/>
							<line class="st17" x1="-299" y1="377" x2="-299" y2="185"/>
							<line class="st17" x1="-295" y1="377" x2="-295" y2="185"/>
							<line class="st17" x1="-291" y1="377" x2="-291" y2="185"/>
							<line class="st17" x1="-287" y1="377" x2="-287" y2="185"/>
							<line class="st17" x1="-283" y1="377" x2="-283" y2="185"/>
							<line class="st17" x1="-279" y1="377" x2="-279" y2="185"/>
							<line class="st17" x1="-278" y1="383" x2="-278" y2="191.1"/>
							<line class="st17" x1="-271" y1="377" x2="-271" y2="185"/>
							<line class="st17" x1="-267" y1="377" x2="-267" y2="185"/>
							<line class="st17" x1="-263" y1="377" x2="-263" y2="185"/>
							<line class="st17" x1="-259" y1="377" x2="-259" y2="185"/>
						</g>
						<g>
							<line class="st17" x1="-447" y1="189" x2="-255" y2="189"/>
							<line class="st17" x1="-447" y1="193" x2="-255" y2="193"/>
							<line class="st17" x1="-447" y1="197" x2="-255" y2="197"/>
							<line class="st17" x1="-447" y1="201" x2="-255" y2="201"/>
							<line class="st17" x1="-447" y1="205" x2="-255" y2="205"/>
							<line class="st17" x1="-447" y1="209" x2="-255" y2="209"/>
							<line class="st17" x1="-447" y1="213" x2="-255" y2="213"/>
							<line class="st17" x1="-447" y1="217" x2="-255" y2="217"/>
							<line class="st17" x1="-447" y1="221" x2="-255" y2="221"/>
							<line class="st17" x1="-447" y1="225" x2="-255" y2="225"/>
							<line class="st17" x1="-447" y1="229" x2="-255" y2="229"/>
							<line class="st17" x1="-447" y1="233" x2="-255" y2="233"/>
							<line class="st17" x1="-447" y1="237" x2="-255" y2="237"/>
							<line class="st17" x1="-447" y1="241" x2="-255" y2="241"/>
							<line class="st17" x1="-447" y1="245" x2="-255" y2="245"/>
							<line class="st17" x1="-447" y1="249" x2="-255" y2="249"/>
							<line class="st17" x1="-447" y1="253" x2="-255" y2="253"/>
							<line class="st17" x1="-447" y1="257" x2="-255" y2="257"/>
							<line class="st17" x1="-447" y1="261" x2="-255" y2="261"/>
							<line class="st17" x1="-447" y1="265" x2="-255" y2="265"/>
							<line class="st17" x1="-447" y1="269" x2="-255" y2="269"/>
							<line class="st17" x1="-447" y1="273" x2="-255" y2="273"/>
							<line class="st17" x1="-447" y1="277" x2="-255" y2="277"/>
							<line class="st17" x1="-447" y1="281" x2="-255" y2="281"/>
							<line class="st17" x1="-447" y1="285" x2="-255" y2="285"/>
							<line class="st17" x1="-447" y1="289" x2="-255" y2="289"/>
							<line class="st17" x1="-447" y1="293" x2="-255" y2="293"/>
							<line class="st17" x1="-447" y1="297" x2="-255" y2="297"/>
							<line class="st17" x1="-447" y1="301" x2="-255" y2="301"/>
							<line class="st17" x1="-447" y1="305" x2="-255" y2="305"/>
							<line class="st17" x1="-447" y1="309" x2="-255" y2="309"/>
							<line class="st17" x1="-447" y1="313" x2="-255" y2="313"/>
							<line class="st17" x1="-447" y1="317" x2="-255" y2="317"/>
							<line class="st17" x1="-447" y1="321" x2="-255" y2="321"/>
							<line class="st17" x1="-447" y1="325" x2="-255" y2="325"/>
							<line class="st17" x1="-447" y1="329" x2="-255" y2="329"/>
							<line class="st17" x1="-447" y1="333" x2="-255" y2="333"/>
							<line class="st17" x1="-447" y1="337" x2="-255" y2="337"/>
							<line class="st17" x1="-447" y1="341" x2="-255" y2="341"/>
							<line class="st17" x1="-447" y1="345" x2="-255" y2="345"/>
							<line class="st17" x1="-447" y1="349" x2="-255" y2="349"/>
							<line class="st17" x1="-447" y1="353" x2="-255" y2="353"/>
							<line class="st17" x1="-447" y1="357" x2="-255" y2="357"/>
							<line class="st17" x1="-447" y1="361" x2="-255" y2="361"/>
							<line class="st17" x1="-447" y1="365" x2="-255" y2="365"/>
							<line class="st17" x1="-447" y1="369" x2="-255" y2="369"/>
							<line class="st17" x1="-447" y1="373" x2="-255" y2="373"/>
						</g>
						<path class="st11" d="M-255.3,185.3v191.5h-191.5V185.3H-255.3 M-255,185h-192v192h192V185L-255,185z"/>
					</g>
				</g>
			</g>
			<g>
				<rect x="-415" y="217" class="st18" width="4" height="128"/>
				<rect x="-291" y="217" class="st18" width="4" height="128"/>
				<rect x="-411" y="217" class="st18" width="120" height="4"/>
				<rect x="-411" y="341" class="st18" width="120" height="4"/>
			</g>
		</g>
	</g>
	<g class="st6">
		<g class="st7">
			<circle class="st8" cx="-209" cy="281" r="28"/>
			<line class="st9" x1="-189" y1="217" x2="-189" y2="345"/>
			<line class="st9" x1="-229" y1="217" x2="-229" y2="345"/>
			<line class="st9" x1="-209" y1="217" x2="-209" y2="345"/>
			<line class="st9" x1="-145" y1="281" x2="-273" y2="281"/>
			<line class="st9" x1="-145" y1="261" x2="-273" y2="261"/>
			<line class="st9" x1="-145" y1="300.8" x2="-273" y2="300.8"/>
			<line class="st9" x1="-145" y1="345" x2="-273" y2="217"/>
			<line class="st9" x1="-273" y1="345" x2="-145" y2="217"/>
			<g class="st10">
				<path class="st11" d="M-209,221.3c32.9,0,59.7,26.8,59.7,59.7s-26.8,59.7-59.7,59.7s-59.7-26.8-59.7-59.7
					S-241.9,221.3-209,221.3 M-209,221c-33.1,0-60,26.9-60,60s26.9,60,60,60s60-26.9,60-60S-175.9,221-209,221L-209,221z"/>
			</g>
			<path class="st12" d="M-165,333H-253c-4.4,0-8-3.6-8-8V237c0-4.4,3.6-8,8-8h87.9c4.4,0,8,3.6,8,8v87.9
				C-157,329.4-160.6,333-165,333z"/>
			<path class="st13" d="M-173,341h-72c-4.4,0-8-3.6-8-8V229c0-4.4,3.6-8,8-8h72c4.4,0,8,3.6,8,8v104C-165,337.4-168.6,341-173,341z
				"/>
			<path class="st14" d="M-159.2,325h-99.5c-5.6,0-10.2-4.6-10.2-10.2v-67.5c0-5.6,4.6-10.2,10.2-10.2h99.5
				c5.6,0,10.2,4.6,10.2,10.2v67.5C-149,320.4-153.6,325-159.2,325z"/>
		</g>
		<g>
			<g class="st15">
				<g>
					<defs>
						<rect id="SVGID_7_" x="-273" y="217" width="128" height="128"/>
					</defs>
					<clipPath id="SVGID_8_">
						<use xlink:href="#SVGID_7_"  style="overflow:visible;"/>
					</clipPath>
					<g class="st20">
						<g>
							<line class="st17" x1="-301" y1="377" x2="-301" y2="185"/>
							<line class="st17" x1="-297" y1="377" x2="-297" y2="185"/>
							<line class="st17" x1="-293" y1="377" x2="-293" y2="185"/>
							<line class="st17" x1="-289" y1="377" x2="-289" y2="185"/>
							<line class="st17" x1="-285" y1="377" x2="-285" y2="185"/>
							<line class="st17" x1="-281" y1="377" x2="-281" y2="185"/>
							<line class="st17" x1="-277" y1="377" x2="-277" y2="185"/>
							<line class="st17" x1="-273" y1="377" x2="-273" y2="185"/>
							<line class="st17" x1="-269" y1="377" x2="-269" y2="185"/>
							<line class="st17" x1="-265" y1="377" x2="-265" y2="185"/>
							<line class="st17" x1="-261" y1="377" x2="-261" y2="185"/>
							<line class="st17" x1="-257" y1="377" x2="-257" y2="185"/>
							<line class="st17" x1="-253" y1="377" x2="-253" y2="185"/>
							<line class="st17" x1="-249" y1="377" x2="-249" y2="185"/>
							<line class="st17" x1="-245" y1="377" x2="-245" y2="185"/>
							<line class="st17" x1="-241" y1="377" x2="-241" y2="185"/>
							<line class="st17" x1="-237" y1="377" x2="-237" y2="185"/>
							<line class="st17" x1="-233" y1="377" x2="-233" y2="185"/>
							<line class="st17" x1="-229" y1="377" x2="-229" y2="185"/>
							<line class="st17" x1="-225" y1="377" x2="-225" y2="185"/>
							<line class="st17" x1="-221" y1="377" x2="-221" y2="185"/>
							<line class="st17" x1="-217" y1="377" x2="-217" y2="185"/>
							<line class="st17" x1="-213" y1="377" x2="-213" y2="185"/>
							<line class="st17" x1="-209" y1="377" x2="-209" y2="185"/>
							<line class="st17" x1="-205" y1="377" x2="-205" y2="185"/>
							<line class="st17" x1="-201" y1="377" x2="-201" y2="185"/>
							<line class="st17" x1="-197" y1="377" x2="-197" y2="185"/>
							<line class="st17" x1="-193" y1="377" x2="-193" y2="185"/>
							<line class="st17" x1="-189" y1="377" x2="-189" y2="185"/>
							<line class="st17" x1="-185" y1="377" x2="-185" y2="185"/>
							<line class="st17" x1="-181" y1="377" x2="-181" y2="185"/>
							<line class="st17" x1="-177" y1="377" x2="-177" y2="185"/>
							<line class="st17" x1="-173" y1="377" x2="-173" y2="185"/>
							<line class="st17" x1="-169" y1="377" x2="-169" y2="185"/>
							<line class="st17" x1="-165" y1="377" x2="-165" y2="185"/>
							<line class="st17" x1="-161" y1="377" x2="-161" y2="185"/>
							<line class="st17" x1="-157" y1="377" x2="-157" y2="185"/>
							<line class="st17" x1="-153" y1="377" x2="-153" y2="185"/>
							<line class="st17" x1="-149" y1="377" x2="-149" y2="185"/>
							<line class="st17" x1="-145" y1="377" x2="-145" y2="185"/>
							<line class="st17" x1="-141" y1="377" x2="-141" y2="185"/>
							<line class="st17" x1="-137" y1="377" x2="-137" y2="185"/>
							<line class="st17" x1="-136" y1="383" x2="-136" y2="191.1"/>
							<line class="st17" x1="-129" y1="377" x2="-129" y2="185"/>
							<line class="st17" x1="-125" y1="377" x2="-125" y2="185"/>
							<line class="st17" x1="-121" y1="377" x2="-121" y2="185"/>
							<line class="st17" x1="-117" y1="377" x2="-117" y2="185"/>
						</g>
						<g>
							<line class="st17" x1="-305" y1="189" x2="-113" y2="189"/>
							<line class="st17" x1="-305" y1="193" x2="-113" y2="193"/>
							<line class="st17" x1="-305" y1="197" x2="-113" y2="197"/>
							<line class="st17" x1="-305" y1="201" x2="-113" y2="201"/>
							<line class="st17" x1="-305" y1="205" x2="-113" y2="205"/>
							<line class="st17" x1="-305" y1="209" x2="-113" y2="209"/>
							<line class="st17" x1="-305" y1="213" x2="-113" y2="213"/>
							<line class="st17" x1="-305" y1="217" x2="-113" y2="217"/>
							<line class="st17" x1="-305" y1="221" x2="-113" y2="221"/>
							<line class="st17" x1="-305" y1="225" x2="-113" y2="225"/>
							<line class="st17" x1="-305" y1="229" x2="-113" y2="229"/>
							<line class="st17" x1="-305" y1="233" x2="-113" y2="233"/>
							<line class="st17" x1="-305" y1="237" x2="-113" y2="237"/>
							<line class="st17" x1="-305" y1="241" x2="-113" y2="241"/>
							<line class="st17" x1="-305" y1="245" x2="-113" y2="245"/>
							<line class="st17" x1="-305" y1="249" x2="-113" y2="249"/>
							<line class="st17" x1="-305" y1="253" x2="-113" y2="253"/>
							<line class="st17" x1="-305" y1="257" x2="-113" y2="257"/>
							<line class="st17" x1="-305" y1="261" x2="-113" y2="261"/>
							<line class="st17" x1="-305" y1="265" x2="-113" y2="265"/>
							<line class="st17" x1="-305" y1="269" x2="-113" y2="269"/>
							<line class="st17" x1="-305" y1="273" x2="-113" y2="273"/>
							<line class="st17" x1="-305" y1="277" x2="-113" y2="277"/>
							<line class="st17" x1="-305" y1="281" x2="-113" y2="281"/>
							<line class="st17" x1="-305" y1="285" x2="-113" y2="285"/>
							<line class="st17" x1="-305" y1="289" x2="-113" y2="289"/>
							<line class="st17" x1="-305" y1="293" x2="-113" y2="293"/>
							<line class="st17" x1="-305" y1="297" x2="-113" y2="297"/>
							<line class="st17" x1="-305" y1="301" x2="-113" y2="301"/>
							<line class="st17" x1="-305" y1="305" x2="-113" y2="305"/>
							<line class="st17" x1="-305" y1="309" x2="-113" y2="309"/>
							<line class="st17" x1="-305" y1="313" x2="-113" y2="313"/>
							<line class="st17" x1="-305" y1="317" x2="-113" y2="317"/>
							<line class="st17" x1="-305" y1="321" x2="-113" y2="321"/>
							<line class="st17" x1="-305" y1="325" x2="-113" y2="325"/>
							<line class="st17" x1="-305" y1="329" x2="-113" y2="329"/>
							<line class="st17" x1="-305" y1="333" x2="-113" y2="333"/>
							<line class="st17" x1="-305" y1="337" x2="-113" y2="337"/>
							<line class="st17" x1="-305" y1="341" x2="-113" y2="341"/>
							<line class="st17" x1="-305" y1="345" x2="-113" y2="345"/>
							<line class="st17" x1="-305" y1="349" x2="-113" y2="349"/>
							<line class="st17" x1="-305" y1="353" x2="-113" y2="353"/>
							<line class="st17" x1="-305" y1="357" x2="-113" y2="357"/>
							<line class="st17" x1="-305" y1="361" x2="-113" y2="361"/>
							<line class="st17" x1="-305" y1="365" x2="-113" y2="365"/>
							<line class="st17" x1="-305" y1="369" x2="-113" y2="369"/>
							<line class="st17" x1="-305" y1="373" x2="-113" y2="373"/>
						</g>
						<path class="st11" d="M-113.3,185.3v191.5h-191.5V185.3H-113.3 M-113,185h-192v192h192V185L-113,185z"/>
					</g>
				</g>
			</g>
			<g>
				<rect x="-273" y="217" class="st18" width="4" height="128"/>
				<rect x="-149" y="217" class="st18" width="4" height="128"/>
				<rect x="-269" y="217" class="st18" width="120" height="4"/>
				<rect x="-269" y="341" class="st18" width="120" height="4"/>
			</g>
		</g>
	</g>
</g>
</svg>
